<?xml version="1.0" encoding="UTF-8"?>
<!DOCTYPE svg PUBLIC "-//W3C//DTD SVG 1.1//EN" "http://www.w3.org/Graphics/SVG/1.1/DTD/svg11.dtd">
<!-- Creator: CorelDRAW -->
<svg xmlns="http://www.w3.org/2000/svg" xml:space="preserve" width="94.1775mm" height="73.8775mm" version="1.1" style="shape-rendering:geometricPrecision; text-rendering:geometricPrecision; image-rendering:optimizeQuality; fill-rule:evenodd; clip-rule:evenodd"
viewBox="0 0 1894.47 1486.11"
 xmlns:xlink="http://www.w3.org/1999/xlink"
 xmlns:xodm="http://www.corel.com/coreldraw/odm/2003">
 <defs>
  <style type="text/css">
   <![CDATA[
    .fil0 {fill:#FEFEFE}
   ]]>
  </style>
 </defs>
 <g id="Camada_x0020_1">
  <metadata id="CorelCorpID_0Corel-Layer"/>
  <g>
   <path class="fil0" d="M1100.61 1485.7l0 -167.36 282.05 -5.23 0.02 0 110.72 -2.05 0 0 227.18 0 -4.59 -0.04 37.14 0 141.32 0.04 0 35.81 0 34.96 -0 38.58 0 65.71 -130.56 0 -27.96 0 -203.82 0 -431.51 -0.41zm393.02 0.41l67.72 0 -67.72 0zm-110.97 -0.04l-260.8 -0.06 -21.25 -0.31 282.05 0.37zm110.97 0.04l-110.97 0 0 -0.04 110.97 0.04zm-819.66 -1484.99l167.37 0 7.28 951.32 0 0 -0 0 0 343.99 -648.83 -1274.06 -10.51 -21.25 167.36 0 226.11 437.23 90.76 175.51 0.05 -201.09 0.09 -390.39 0.31 -21.25zm786.69 -1.12l-167.37 0 -3.35 1086.28 0.18 0 0 210.48 230.54 0.19 0.04 -0.02 227.17 0.22 146.58 -0.22 0 -171.29 -159.34 0 -189.82 0 -84.21 0.64 -0.1 -1108.28 -0.31 -18zm-188.88 1086.28l-0.1 -1068.28 -0.31 -18 -167.37 0 -3.4 1104.29 -0 24.76 0 46.58 0 120.79 21.25 0.31 149.93 0.04 0 -210.48zm-1271.79 -1085.16l167.36 0 751.18 1469.18 -31.3 0 -147.97 0 -728.76 -1447.93 -10.52 -21.25zm1034.04 1309.84l0 159.34 -96.86 0 -74.65 -146.58 0.22 0 0 -343.98 -0.02 -0.03 0.23 -957.33 0.31 -21.25 167.36 0 3.4 444.69 0 865.15z"/>
  </g>
 </g>
</svg>
